/* XPM */
static const char * unknown_xpm[] = {
"50 50 68 1",
" 	c #000000",
".	c #010101",
"+	c #070707",
"@	c #101010",
"#	c #1A1A1A",
"$	c #212121",
"%	c #252525",
"&	c #262626",
"*	c #202020",
"=	c #181818",
"-	c #0D0D0D",
";	c #050505",
">	c #1F1F1F",
",	c #363636",
"'	c #434343",
")	c #484848",
"!	c #474747",
"~	c #3F3F3F",
"{	c #2F2F2F",
"]	c #141414",
"^	c #020202",
"/	c #424242",
"(	c #383838",
"_	c #0F0F0F",
":	c #313131",
"<	c #444444",
"[	c #030303",
"}	c #353535",
"|	c #222222",
"1	c #282828",
"2	c #464646",
"3	c #171717",
"4	c #121212",
"5	c #343434",
"6	c #1D1D1D",
"7	c #0E0E0E",
"8	c #454545",
"9	c #3A3A3A",
"0	c #232323",
"a	c #292929",
"b	c #414141",
"c	c #303030",
"d	c #040404",
"e	c #404040",
"f	c #242424",
"g	c #3E3E3E",
"h	c #333333",
"i	c #0B0B0B",
"j	c #131313",
"k	c #1B1B1B",
"l	c #2C2C2C",
"m	c #1E1E1E",
"n	c #151515",
"o	c #3C3C3C",
"p	c #080808",
"q	c #060606",
"r	c #373737",
"s	c #0A0A0A",
"t	c #323232",
"u	c #191919",
"v	c #1C1C1C",
"w	c #2B2B2B",
"x	c #111111",
"y	c #2E2E2E",
"z	c #2A2A2A",
"A	c #272727",
"B	c #2D2D2D",
"C	c #161616",
"                                                  ",
"                                                  ",
"                                                  ",
"                                                  ",
"                                                  ",
"                   .+@#$%&%*=-;                   ",
"                 ;>,'))))))))!~{].                ",
"               ^*/))))))))))))))!(_               ",
"              ;:))))))))))))))))))<>              ",
"             [}))))))))))))))))))))!|.            ",
"            .1))))))))))))))))))))))23            ",
"            42)))))))))))))))))))))))~;           ",
"           .5)))))))))))))))))))))))))6           ",
"           78))))))))))/5:9!))))))))))5.          ",
"           0)))))))))!a;. ^=8)))))))))b[          ",
"          .5)))))))))c.     c)))))))))!d          ",
"          [e))))))))!7      f)))))))))!d          ",
"          [{(b2!!)))gd     .h)))))))))e[          ",
"              [ijkfl&.     6!))))))))){           ",
"                         .m8)))))))))2n           ",
"                        ^a!)))))))))):.           ",
"                       ;c)))))))))))op            ",
"                      qr)))))))))))gi             ",
"                     p9)))))))))))(s              ",
"                    ^5)))))))))))t;               ",
"                    >))))))))))2|.                ",
"                   [o)))))))))8k                  ",
"                   _)))))))))2u                   ",
"                   v)))))))))w.                   ",
"                   f))))))))2x                    ",
"                   %))))))))'q                    ",
"                   =yyyyyyyyz^                    ",
"                                                  ",
"                                                  ",
"                   ABBBBBBBBB-                    ",
"                   g)))))))))n                    ",
"                   g)))))))))n                    ",
"                   g)))))))))n                    ",
"                   g)))))))))n                    ",
"                   g)))))))))n                    ",
"                   g)))))))))n                    ",
"                   g)))))))))n                    ",
"                   g)))))))))n                    ",
"                   C#########p                    ",
"                                                  ",
"                                                  ",
"                                                  ",
"                                                  ",
"                                                  ",
"                                                  "};
